<?xml version="1.0" encoding="UTF-8"?><svg version="1.1" xmlns="http://www.w3.org/2000/svg" xmlns:xlink="http://www.w3.org/1999/xlink" viewBox="0 0 1200 800" width="1200" height="800" x="0px" y="0px">
    
    
    <!-- ITEM 0 -->
    <g>
        <defs>
            <clipPath id="clip-path-id-crop-item-0">
                
          <rect transform="scale(0.4175972696245734 0.4171235521235521)" x="0.0" y="0.0" width="432.0" height="518.0"/>
        
            </clipPath>
            
            <clipPath id="clip-path-id-viewbox-item-0">
                <rect x="0.0" y="0.0" width="244.712" height="216.07"/>
            </clipPath>
        </defs>
        <g clip-path="url(#clip-path-id-crop-item-0)" transform="translate(564.0 163.0) rotate(0.0 293.0 259.0) scale(2.394651672169734 2.397371222289073)">
            <g clip-path="url(#clip-path-id-viewbox-item-0)" transform="translate(-0.0 -0.0)">
                
  <rect width="244.712" height="216.07" fill="#e1e3e3"/>

            </g>
        </g>
    </g>
    
    <!-- ITEM 1 -->
    <g>
        <defs>
            <clipPath id="clip-path-id-viewbox-item-1">
                <rect x="0.0" y="0.0" width="125.8" height="77.134"/>
            </clipPath>
        </defs>
        <g transform="translate(791.0 487.0) rotate(0.0 63.0 39.0) scale(1.001589825119237 1.0112272149765342)">
            <g clip-path="url(#clip-path-id-viewbox-item-1)" transform="translate(-0.0 -0.0)">
                
  <g>
    <path d="M70.837,77.134A11.235,11.235,0,0,1,59.615,65.911V30.64a4.574,4.574,0,1,0-9.147,0V52.712a9.709,9.709,0,0,1-19.417,0V43H3a3,3,0,0,1,0-6H34.051a3,3,0,0,1,3,3V52.712a3.709,3.709,0,0,0,7.417,0V30.64a10.574,10.574,0,1,1,21.147,0V65.911a5.223,5.223,0,1,0,10.445,0V10.79a10.79,10.79,0,0,1,21.58,0V48.63h17.341a3,3,0,0,1,0,6H94.64a3,3,0,0,1-3-3V10.79a4.79,4.79,0,0,0-9.58,0V65.911A11.235,11.235,0,0,1,70.837,77.134Z" fill="#261c03"/>
    <circle cx="114.981" cy="51.63" r="10.819" fill="#261c03"/>
  </g>

            </g>
        </g>
    </g>
    
    <!-- ITEM 2 -->
    <g>
        <defs>
            <clipPath id="clip-path-id-viewbox-item-2">
                <rect x="0.0" y="0.0" width="637.1" height="544.4"/>
            </clipPath>
        </defs>
        <g transform="translate(166.0 136.0) rotate(0.0 319.0 272.5) scale(1.0014126510751844 1.0011021307861867)">
            <g clip-path="url(#clip-path-id-viewbox-item-2)" transform="translate(-0.0 -0.0)">
                

<g>
	<path d="M217.4,29.4C97.3,29.4,0,126.7,0,246.8s97.3,217.4,217.4,217.4V29.4z" style="fill:#E1E3E3;"/>
	<g>
		<polygon points="549.9,439.3 150.9,439.3 150.9,342.5 549.9,342.5 637.1,390.9   " style="fill:#FF331C;"/>
	</g>
	<g>
		<polygon points="262.5,344.9 378.4,344.9 320.5,460.8   " style="fill:#E1E3E3;"/>
		<path d="M320.5,463.8c-1.1,0-2.2-0.6-2.7-1.7l-57.9-115.9c-0.5-0.9-0.4-2,0.1-2.9s1.5-1.4,2.6-1.4h115.9    c1,0,2,0.5,2.6,1.4s0.6,2,0.1,2.9l-57.9,115.9C322.6,463.1,321.6,463.8,320.5,463.8z M267.4,347.9l53.1,106.2l53.1-106.2    L267.4,347.9L267.4,347.9z" style="fill:#262103;"/>
	</g>
	<g>
		<rect x="542.9" y="342.5" width="6" height="44.7" style="fill:#261C03;"/>
	</g>
	<path d="M0,246.8c111.6,0,202.1,82.6,202.1,194.2v103.5H0V246.8z" style="fill:#6FC998;"/>
	<g>
		<path d="M216.5,248.5h-29.1v-6h26.1L212.2,0h6l1.3,245.5c0,0.8-0.3,1.6-0.9,2.1S217.3,248.5,216.5,248.5z" style="fill:#261C03;"/>
	</g>
	<g>
		<rect x="186.1" y="268.6" width="56.6" height="6" style="fill:#261C03;"/>
	</g>
	<g>
		<path d="M129.5,221.3C95,221.3,67,193.2,67,158.7s28-62.5,62.5-62.5s62.5,28.1,62.5,62.5S164,221.3,129.5,221.3z     M129.5,102.2c-31.2,0-56.5,25.4-56.5,56.5s25.4,56.5,56.5,56.5s56.5-25.4,56.5-56.5S160.7,102.2,129.5,102.2z" style="fill:#261C03;"/>
	</g>
	<path d="M174.3,156.9c0,0-58.9,0-58.8,0c0,16.2,13.2,29.4,29.4,29.4S174.3,173.1,174.3,156.9z" style="fill:#261C03;"/>
	<g>
		<path d="M241,544.4h-38.9c-1.7,0-3-1.3-3-3v-92.6c0-53-20.5-103-57.8-140.8C104.2,270.4,55.5,249.7,4,249.7H0v-6h3.9    c53.1,0,103.4,21.3,141.6,60.1c38.4,38.9,59.6,90.4,59.6,145v89.6H241c42.2,0,76.6-34.4,76.6-76.6h6    C323.6,507.3,286.5,544.4,241,544.4z" style="fill:#261C03;"/>
	</g>
	<g>
		<path d="M11.4,187l-5.8-1.4c4-16.2,10.7-29.5,11-30.1c0.5-1,1.5-1.6,2.7-1.6l0,0l155,0.1v6l-153.1-0.1    C19.3,163.8,14.5,174.6,11.4,187z" style="fill:#261C03;"/>
	</g>
	<circle cx="153.5" cy="152.2" r="10.5" style="fill:#E1E3E3;"/>
</g>

            </g>
        </g>
    </g>
    
    <!-- ITEM 3 -->
    <g>
        <defs>
            <clipPath id="clip-path-id-viewbox-item-3">
                <rect x="0.0" y="0.0" width="53.895" height="51.806"/>
            </clipPath>
        </defs>
        <g transform="translate(685.0 212.0) rotate(0.0 27.0 26.0) scale(1.0019482326746452 1.003744739991507)">
            <g clip-path="url(#clip-path-id-viewbox-item-3)" transform="translate(-0.0 -0.0)">
                
  <path d="M24.618,51.806h0A3,3,0,0,1,22,50.271L0,10.932,5.237,8,24.628,42.677,48.668,0,53.9,2.945,27.232,50.279A3,3,0,0,1,24.618,51.806Z" fill="#262103"/>

            </g>
        </g>
    </g>
    
    <!-- ITEM 4 -->
    <g>
        <defs>
            <clipPath id="clip-path-id-viewbox-item-4">
                <rect x="0.0" y="0.0" width="53.895" height="51.806"/>
            </clipPath>
        </defs>
        <g transform="translate(687.0 284.0) rotate(0.0 27.0 26.0) scale(1.0019482326746452 1.003744739991507)">
            <g clip-path="url(#clip-path-id-viewbox-item-4)" transform="translate(-0.0 -0.0)">
                
  <path d="M24.618,51.806h0A3,3,0,0,1,22,50.271L0,10.932,5.237,8,24.628,42.677,48.668,0,53.9,2.945,27.232,50.279A3,3,0,0,1,24.618,51.806Z" fill="#262103"/>

            </g>
        </g>
    </g>
    
    <!-- ITEM 5 -->
    <g>
        <defs>
            <clipPath id="clip-path-id-viewbox-item-5">
                <rect x="0.0" y="0.0" width="53.895" height="51.806"/>
            </clipPath>
        </defs>
        <g transform="translate(688.0 357.0) rotate(0.0 27.0 26.0) scale(1.0019482326746452 1.003744739991507)">
            <g clip-path="url(#clip-path-id-viewbox-item-5)" transform="translate(-0.0 -0.0)">
                
  <path d="M24.618,51.806h0A3,3,0,0,1,22,50.271L0,10.932,5.237,8,24.628,42.677,48.668,0,53.9,2.945,27.232,50.279A3,3,0,0,1,24.618,51.806Z" fill="#262103"/>

            </g>
        </g>
    </g>
    
    <!-- ITEM 6 -->
    <g>
        <defs>
            <clipPath id="clip-path-id-crop-item-6">
                
          <rect transform="scale(1.0005763688760807 0.9986380952380952)" x="162.0" y="0.0" width="185.0" height="105.0"/>
        
            </clipPath>
            
            <clipPath id="clip-path-id-viewbox-item-6">
                <rect x="0.0" y="0.0" width="347.2" height="104.857"/>
            </clipPath>
        </defs>
        <g clip-path="url(#clip-path-id-crop-item-6)" transform="translate(390.0 113.0) rotate(89.99999999999987 173.5 52.5) scale(0.9994239631336406 1.00136376207597)">
            <g clip-path="url(#clip-path-id-viewbox-item-6)" transform="translate(-0.0 -0.0)">
                
  <g>
    <circle cx="126.363" cy="52.429" r="30.234" fill="#ff331c"/>
    <circle cx="30.234" cy="52.429" r="30.234" fill="#ff331c"/>
    <circle cx="224.727" cy="52.429" r="30.234" fill="#ff331c"/>
    <path d="M224.52,104.857a52.429,52.429,0,1,1,52.344-55.428H347.2v6H273.949a3,3,0,0,1-3-3A46.429,46.429,0,1,0,224.52,98.857Z" fill="#262103"/>
  </g>

            </g>
        </g>
    </g>
    
    <!-- ITEM 7 -->
    <g>
        <defs>
            <clipPath id="clip-path-id-crop-item-7">
                
          <rect transform="scale(0.997140350877193 0.9985296296296297)" x="0.0" y="0.0" width="44.0" height="270.0"/>
        
            </clipPath>
            
            <clipPath id="clip-path-id-viewbox-item-7">
                <rect x="0.0" y="0.0" width="56.837" height="269.603"/>
            </clipPath>
        </defs>
        <g clip-path="url(#clip-path-id-crop-item-7)" transform="translate(819.0 132.0) rotate(0.0 28.5 135.0) scale(1.0028678501680244 1.001472535543002)">
            <g clip-path="url(#clip-path-id-viewbox-item-7)" transform="translate(-0.0 -0.0)">
                
  <path d="M53.837,269.6H3a3,3,0,0,1-3-3V3A3,3,0,0,1,3,0H53.838a3,3,0,0,1,3,3V266.6A3,3,0,0,1,53.837,269.6ZM6,263.6H50.837V6H6Z" fill="#261c03"/>

            </g>
        </g>
    </g>
    
    <!-- ITEM 8 -->
    <g>
        <defs>
            <clipPath id="clip-path-id-crop-item-8">
                
          <rect transform="scale(0.997140350877193 0.9985296296296297)" x="1.0" y="0.0" width="44.0" height="270.0"/>
        
            </clipPath>
            
            <clipPath id="clip-path-id-viewbox-item-8">
                <rect x="0.0" y="0.0" width="56.837" height="269.603"/>
            </clipPath>
        </defs>
        <g clip-path="url(#clip-path-id-crop-item-8)" transform="translate(1027.0 132.0) rotate(0.0 -28.5 135.0) scale(-1.0028678501680244 1.001472535543002)">
            <g clip-path="url(#clip-path-id-viewbox-item-8)" transform="translate(-0.0 -0.0)">
                
  <path d="M53.837,269.6H3a3,3,0,0,1-3-3V3A3,3,0,0,1,3,0H53.838a3,3,0,0,1,3,3V266.6A3,3,0,0,1,53.837,269.6ZM6,263.6H50.837V6H6Z" fill="#261c03"/>

            </g>
        </g>
    </g>
    
    <!-- ITEM 9 -->
    <g>
        <defs>
            <clipPath id="clip-path-id-viewbox-item-9">
                <rect x="0.0" y="0.0" width="101.057" height="98.451"/>
            </clipPath>
        </defs>
        <g transform="translate(869.0 86.0) rotate(44.084888835144575 50.5 49.0) scale(0.9994359618828977 0.9954190409442262)">
            <g clip-path="url(#clip-path-id-viewbox-item-9)" transform="translate(-0.0 -0.0)">
                
  <rect x="-17.016" y="46.225" width="135.088" height="6" transform="translate(-20.014 49.14) rotate(-44.182)" fill="#262103"/>

            </g>
        </g>
    </g>
    
    <!-- ITEM 10 -->
    <g>
        <defs>
            <clipPath id="clip-path-id-viewbox-item-10">
                <rect x="0.0" y="0.0" width="101.057" height="98.451"/>
            </clipPath>
        </defs>
        <g transform="translate(879.0 349.0) rotate(44.084888835144575 50.5 49.0) scale(0.9994359618828977 0.9954190409442262)">
            <g clip-path="url(#clip-path-id-viewbox-item-10)" transform="translate(-0.0 -0.0)">
                
  <rect x="-17.016" y="46.225" width="135.088" height="6" transform="translate(-20.014 49.14) rotate(-44.182)" fill="#262103"/>

            </g>
        </g>
    </g>
    
    <!-- ITEM 11 -->
    <g>
        <defs>
            <clipPath id="clip-path-id-viewbox-item-11">
                <rect x="0.0" y="0.0" width="96.909" height="68.958"/>
            </clipPath>
        </defs>
        <g transform="translate(848.0 213.0) rotate(0.0 48.5 34.5) scale(1.0009390252711305 1.0006090663882363)">
            <g clip-path="url(#clip-path-id-viewbox-item-11)" transform="translate(-0.0 -0.0)">
                
  <g>
    <rect width="96.909" height="6" fill="#261c03"/>
    <rect y="31.479" width="96.909" height="6" fill="#261c03"/>
    <rect y="62.957" width="96.909" height="6" fill="#261c03"/>
  </g>

            </g>
        </g>
    </g>
    
</svg>